<svg width="21" height="17" viewBox="0 0 21 17" fill="none" xmlns="http://www.w3.org/2000/svg">
<path d="M20.5 4.21625V13.125C20.5 13.9538 20.1708 14.7487 19.5847 15.3347C18.9987 15.9208 18.2038 16.25 17.375 16.25H3.625C2.7962 16.25 2.00134 15.9208 1.41529 15.3347C0.82924 14.7487 0.5 13.9538 0.5 13.125V4.21625L10.1825 9.91375C10.2787 9.97048 10.3883 10.0004 10.5 10.0004C10.6117 10.0004 10.7213 9.97048 10.8175 9.91375L20.5 4.21625ZM17.375 3.86909e-08C18.1439 -0.000120895 18.8859 0.283258 19.459 0.795925C20.0321 1.30859 20.3961 2.01455 20.4813 2.77875L10.5 8.65L0.51875 2.77875C0.603948 2.01455 0.967905 1.30859 1.54099 0.795925C2.11408 0.283258 2.85607 -0.000120895 3.625 3.86909e-08H17.375Z" fill="#616161"/>
</svg>
