<svg width="24" height="24" viewBox="0 0 24 24" fill="none" xmlns="http://www.w3.org/2000/svg">
<path d="M11.0746 2.633C11.3946 1.789 12.6056 1.789 12.9266 2.633L14.9966 8.367C15.0688 8.55379 15.1959 8.71428 15.3613 8.8273C15.5266 8.94031 15.7223 9.00053 15.9226 9H21.0096C21.9496 9 22.3596 10.17 21.6206 10.743L18.0006 14C17.8384 14.1247 17.7199 14.2975 17.6621 14.4937C17.6042 14.6898 17.61 14.8993 17.6786 15.092L19.0006 20.695C19.3226 21.595 18.2806 22.368 17.4926 21.814L12.5756 18.694C12.4072 18.5757 12.2064 18.5122 12.0006 18.5122C11.7948 18.5122 11.594 18.5757 11.4256 18.694L6.50856 21.814C5.72156 22.368 4.67856 21.594 5.00056 20.695L6.32257 15.092C6.39114 14.8993 6.39692 14.6898 6.33907 14.4937C6.28122 14.2975 6.16272 14.1247 6.00057 14L2.38056 10.743C1.64056 10.17 2.05256 9 2.99056 9H8.07756C8.27786 9.00067 8.47363 8.9405 8.63898 8.82747C8.80433 8.71444 8.93147 8.55387 9.00357 8.367L11.0736 2.633H11.0746Z" stroke="#FF6501" stroke-width="2" stroke-linecap="round" stroke-linejoin="round"/>
</svg>
