<svg width="39" height="38" viewBox="0 0 39 38" fill="none" xmlns="http://www.w3.org/2000/svg">
<path d="M38.0007 19C38.0007 28.9225 29.7899 37 19.6195 37C9.449 37 1.23828 28.9225 1.23828 19C1.23828 9.07751 9.449 1 19.6195 1C29.7899 1 38.0007 9.07751 38.0007 19Z" stroke="white" stroke-width="2"/>
<path d="M12.7345 20.5771L7.518 19.0356C6.39034 18.7091 6.38407 17.9729 7.77068 17.4446L28.0958 10.0041C29.2757 9.54893 29.9439 10.1248 29.5617 11.5674L26.1015 27.042C25.8592 28.1442 25.1597 28.4074 24.1886 27.8989L18.8615 24.1628L16.3785 26.4345C16.1237 26.668 15.917 26.8679 15.5244 26.9174C15.1339 26.9688 14.8123 26.858 14.5763 26.2445L12.7596 20.5632L12.7345 20.5771Z" fill="white"/>
</svg>
