<svg width="25" height="25" viewBox="0 0 25 25" fill="none" xmlns="http://www.w3.org/2000/svg">
<path d="M11.8721 0.00412606C9.86585 0.0283448 5.55257 0.358032 3.14007 2.57131C1.34554 4.34944 0.718977 6.97835 0.645539 10.2291C0.584602 13.4682 0.511164 19.551 6.37445 21.2073V23.7299C6.37445 23.7299 6.33773 24.7393 7.00491 24.9463C7.82679 25.2065 8.29476 24.4299 9.07601 23.5955L10.533 21.9479C14.5448 22.2815 17.6174 21.5127 17.9713 21.3987C18.7854 21.1385 23.3705 20.5526 24.1198 14.469C24.8885 8.18616 23.7455 4.22756 21.6823 2.43694H21.6698C21.0471 1.8635 18.5448 0.0400636 12.9541 0.0197511C12.9541 0.0197511 12.5393 -0.00837394 11.8721 0.00334481V0.00412606ZM11.9409 1.77053C12.5104 1.76663 12.8565 1.79084 12.8565 1.79084C17.5885 1.80334 19.8471 3.22756 20.3799 3.70725C22.1174 5.19631 23.0127 8.76506 22.3573 14.0104C21.7346 19.0963 18.0159 19.4182 17.3276 19.6377C17.0346 19.7315 14.3284 20.3987 10.919 20.1791C10.919 20.1791 8.37991 23.2432 7.58616 24.0323C7.46038 24.1705 7.31351 24.2112 7.21976 24.1908C7.08538 24.158 7.04476 23.9916 7.05257 23.7635L7.07679 19.5768C2.10413 18.2018 2.3971 13.0135 2.45023 10.3033C2.51116 7.59319 3.01976 5.376 4.53382 3.87444C6.5721 2.03147 10.2346 1.78303 11.9393 1.77053H11.9409ZM12.3159 4.47991C12.2749 4.4795 12.2343 4.48719 12.1964 4.50254C12.1584 4.51789 12.1239 4.5406 12.0948 4.56936C12.0657 4.59812 12.0425 4.63236 12.0267 4.6701C12.0109 4.70785 12.0027 4.74835 12.0026 4.78928C12.0026 4.96428 12.1448 5.10256 12.3159 5.10256C13.0905 5.08783 13.8603 5.2266 14.581 5.51087C15.3018 5.79513 15.9591 6.21927 16.5151 6.75881C17.6502 7.86116 18.2034 9.34241 18.2244 11.2791C18.2244 11.4502 18.3627 11.5924 18.5377 11.5924V11.5799C18.6202 11.5801 18.6994 11.5477 18.7581 11.4898C18.8168 11.4318 18.8502 11.353 18.851 11.2705C18.8889 10.3589 18.7411 9.44914 18.4165 8.59644C18.0919 7.74375 17.5973 6.96597 16.9627 6.31038C15.726 5.10178 14.1588 4.47913 12.3159 4.47913V4.47991ZM8.19788 5.19631C7.97675 5.164 7.75122 5.20839 7.55882 5.32209H7.54241C7.09574 5.58392 6.69336 5.91485 6.35023 6.30256C6.06507 6.63225 5.91038 6.96584 5.86976 7.28694C5.84554 7.47834 5.86195 7.66975 5.91898 7.85256L5.93929 7.86506C6.26038 8.80881 6.67991 9.71663 7.19241 10.5713C7.85259 11.7721 8.66503 12.8825 9.6096 13.8752L9.63773 13.9158L9.68226 13.9487L9.71038 13.9815L9.7432 14.0096C10.7395 14.9569 11.8526 15.7732 13.0557 16.4385C14.4307 17.1869 15.2651 17.5408 15.7659 17.6877V17.6955C15.9127 17.7401 16.0463 17.7604 16.1807 17.7604C16.6075 17.7291 17.0115 17.5558 17.3284 17.2682C17.7143 16.925 18.0415 16.5209 18.2971 16.0721V16.0643C18.5369 15.6127 18.4557 15.1854 18.1096 14.8963C17.4165 14.2905 16.667 13.7523 15.8713 13.2893C15.3385 13.0002 14.7971 13.1752 14.5776 13.4682L14.1096 14.058C13.8698 14.351 13.4338 14.3104 13.4338 14.3104L13.4213 14.3182C10.1705 13.4877 9.30335 10.1963 9.30335 10.1963C9.30335 10.1963 9.26273 9.74866 9.56351 9.52053L10.1494 9.04866C10.4299 8.82053 10.6252 8.27991 10.3244 7.74631C9.8646 6.94956 9.32765 6.19987 8.72132 5.50803C8.58877 5.34493 8.4028 5.23396 8.19632 5.19475L8.19788 5.19631ZM12.8565 6.12444C12.4416 6.12444 12.4416 6.751 12.8604 6.751C13.3762 6.75937 13.8854 6.86931 14.3587 7.07454C14.832 7.27978 15.2603 7.57627 15.619 7.94709C15.9462 8.30804 16.1976 8.73099 16.3584 9.19088C16.5192 9.65077 16.586 10.1382 16.5549 10.6244C16.5563 10.7067 16.5899 10.7852 16.6485 10.843C16.707 10.9008 16.7859 10.9334 16.8682 10.9338L16.8807 10.9502C16.9636 10.9496 17.0429 10.9164 17.1015 10.8578C17.1602 10.7992 17.1934 10.7198 17.194 10.6369C17.2221 9.39553 16.8362 8.35413 16.0791 7.51975C15.3182 6.68538 14.2565 6.21741 12.901 6.12444H12.8565ZM13.3698 7.80881C12.9424 7.79631 12.926 8.43538 13.3494 8.44788C14.3791 8.501 14.8791 9.02131 14.9448 10.0916C14.9462 10.1729 14.9794 10.2503 15.0372 10.3074C15.095 10.3645 15.1729 10.3967 15.2541 10.3971H15.2666C15.3084 10.3953 15.3494 10.3852 15.3872 10.3674C15.4251 10.3496 15.459 10.3244 15.487 10.2934C15.515 10.2623 15.5365 10.226 15.5503 10.1865C15.5641 10.1471 15.5699 10.1052 15.5674 10.0635C15.494 8.66819 14.733 7.88225 13.3823 7.8096H13.3698V7.80881Z" fill="#616161"/>
</svg>
