<svg width="39" height="38" viewBox="0 0 39 38" fill="none" xmlns="http://www.w3.org/2000/svg">
<path d="M37.8815 19C37.8815 28.9225 29.6708 37 19.5003 37C9.32986 37 1.11914 28.9225 1.11914 19C1.11914 9.07751 9.32986 1 19.5003 1C29.6708 1 37.8815 9.07751 37.8815 19Z" stroke="white" stroke-width="2"/>
<path d="M20.3208 17.5141H25.243L24.696 19.7034H20.3208V29.5553H18.1331V19.7034H13.7578V17.5141H18.1331V15.4649C18.1331 13.5132 18.3366 12.8049 18.7172 12.0912C19.0902 11.3861 19.6664 10.8094 20.3711 10.4361C21.0842 10.0552 21.7919 9.85156 23.7422 9.85156C24.3132 9.85156 24.8142 9.9063 25.243 10.0158V12.0409H23.7422C22.294 12.0409 21.8532 12.1262 21.4036 12.3671C21.0711 12.5444 20.8239 12.7918 20.6467 13.1246C20.4061 13.5745 20.3208 14.0156 20.3208 15.4649V17.5141Z" fill="white"/>
</svg>
