<svg width="39" height="38" viewBox="0 0 39 38" fill="none" xmlns="http://www.w3.org/2000/svg">
<path d="M37.7624 19C37.7624 28.9225 29.5517 37 19.3812 37C9.21072 37 1 28.9225 1 19C1 9.07751 9.21072 1 19.3812 1C29.5517 1 37.7624 9.07751 37.7624 19Z" stroke="white" stroke-width="2"/>
<path d="M19.3815 16.187C18.62 16.187 17.8897 16.4836 17.3512 17.0115C16.8127 17.5394 16.5102 18.2553 16.5102 19.0019C16.5102 19.7484 16.8127 20.4644 17.3512 20.9922C17.8897 21.5201 18.62 21.8167 19.3815 21.8167C20.143 21.8167 20.8733 21.5201 21.4118 20.9922C21.9503 20.4644 22.2528 19.7484 22.2528 19.0019C22.2528 18.2553 21.9503 17.5394 21.4118 17.0115C20.8733 16.4836 20.143 16.187 19.3815 16.187ZM19.3815 14.3105C20.6507 14.3105 21.8679 14.8048 22.7653 15.6846C23.6628 16.5644 24.167 17.7576 24.167 19.0019C24.167 20.2461 23.6628 21.4393 22.7653 22.3191C21.8679 23.1989 20.6507 23.6932 19.3815 23.6932C18.1123 23.6932 16.8951 23.1989 15.9977 22.3191C15.1002 21.4393 14.596 20.2461 14.596 19.0019C14.596 17.7576 15.1002 16.5644 15.9977 15.6846C16.8951 14.8048 18.1123 14.3105 19.3815 14.3105ZM25.6026 14.0759C25.6026 14.387 25.4766 14.6853 25.2522 14.9053C25.0279 15.1252 24.7236 15.2488 24.4063 15.2488C24.089 15.2488 23.7847 15.1252 23.5603 14.9053C23.3359 14.6853 23.2099 14.387 23.2099 14.0759C23.2099 13.7649 23.3359 13.4666 23.5603 13.2466C23.7847 13.0267 24.089 12.9031 24.4063 12.9031C24.7236 12.9031 25.0279 13.0267 25.2522 13.2466C25.4766 13.4666 25.6026 13.7649 25.6026 14.0759ZM19.3815 11.4957C17.0136 11.4957 16.627 11.5023 15.5254 11.5501C14.775 11.5848 14.2716 11.6833 13.8045 11.8616C13.3891 12.0192 13.0896 12.2078 12.7708 12.5212C12.4713 12.8049 12.241 13.1513 12.097 13.5345C11.9152 13.9943 11.8147 14.4869 11.7802 15.2216C11.7305 16.2574 11.7247 16.6196 11.7247 19.0019C11.7247 21.3231 11.7314 21.7022 11.7802 22.7822C11.8157 23.5168 11.9162 24.0113 12.097 24.4682C12.2598 24.8764 12.4512 25.1701 12.7689 25.4816C13.0915 25.7968 13.391 25.9854 13.8026 26.1412C14.2754 26.3204 14.7788 26.4198 15.5254 26.4536C16.582 26.5024 16.9514 26.508 19.3815 26.508C21.7494 26.508 22.136 26.5015 23.2376 26.4536C23.9861 26.4189 24.4905 26.3204 24.9575 26.143C25.372 25.9845 25.6735 25.7959 25.9912 25.4844C26.3137 25.1682 26.5061 24.8745 26.665 24.471C26.8468 24.0085 26.9483 23.514 26.9828 22.7822C27.0325 21.7463 27.0383 21.3841 27.0383 19.0019C27.0383 16.6806 27.0316 16.3015 26.9828 15.2216C26.9473 14.4878 26.8468 13.9924 26.665 13.5345C26.5208 13.1517 26.2908 12.8055 25.9922 12.5212C25.7029 12.2274 25.3495 12.0016 24.9585 11.8607C24.4895 11.6824 23.9861 11.5839 23.2376 11.5501C22.181 11.5013 21.8116 11.4957 19.3815 11.4957ZM19.3815 9.61914C21.9819 9.61914 22.3064 9.62852 23.3267 9.67544C24.346 9.72235 25.0399 9.87904 25.6505 10.1117C26.2822 10.3501 26.8143 10.6728 27.3465 11.1936C27.8331 11.6626 28.2097 12.23 28.45 12.8562C28.6864 13.4539 28.8472 14.135 28.895 15.1343C28.94 16.1345 28.9525 16.4526 28.9525 19.0019C28.9525 21.5511 28.9429 21.8692 28.895 22.8694C28.8472 23.8687 28.6864 24.5489 28.45 25.1475C28.2104 25.7741 27.8337 26.3416 27.3465 26.8102C26.8679 27.2871 26.2892 27.6562 25.6505 27.892C25.0408 28.1237 24.346 28.2814 23.3267 28.3283C22.3064 28.3724 21.9819 28.3846 19.3815 28.3846C16.7811 28.3846 16.4566 28.3752 15.4364 28.3283C14.417 28.2814 13.7232 28.1237 13.1125 27.892C12.4735 27.6569 11.8946 27.2877 11.4166 26.8102C10.9298 26.3412 10.5532 25.7738 10.313 25.1475C10.0757 24.5499 9.91583 23.8687 9.86797 22.8694C9.82299 21.8692 9.81055 21.5511 9.81055 19.0019C9.81055 16.4526 9.82012 16.1345 9.86797 15.1343C9.91583 14.1341 10.0757 13.4548 10.313 12.8562C10.5525 12.2296 10.9292 11.6621 11.4166 11.1936C11.8948 10.7162 12.4736 10.347 13.1125 10.1117C13.7232 9.87904 14.4161 9.72235 15.4364 9.67544C16.4566 9.63134 16.7811 9.61914 19.3815 9.61914Z" fill="white"/>
</svg>
