<svg width="39" height="38" viewBox="0 0 39 38" fill="none" xmlns="http://www.w3.org/2000/svg">
<path d="M37.9997 19C37.9997 28.9225 29.789 37 19.6185 37C9.44802 37 1.2373 28.9225 1.2373 19C1.2373 9.07751 9.44802 1 19.6185 1C29.789 1 37.9997 9.07751 37.9997 19Z" stroke="white" stroke-width="2"/>
<path d="M12.7325 20.5771L7.51605 19.0356C6.38838 18.7091 6.38212 17.9729 7.76873 17.4446L28.0938 10.0041C29.2737 9.54893 29.9419 10.1248 29.5598 11.5674L26.0995 27.042C25.8573 28.1442 25.1577 28.4074 24.1867 27.8989L18.8595 24.1628L16.3766 26.4345C16.1218 26.668 15.9151 26.8679 15.5225 26.9174C15.132 26.9688 14.8104 26.858 14.5744 26.2445L12.7576 20.5632L12.7325 20.5771Z" fill="white"/>
</svg>
